<svg width="100" height="101" viewBox="0 0 100 101" fill="none" xmlns="http://www.w3.org/2000/svg">
<g id="group_6">
<path id="Shape" d="M73.5639 45.627C73.5639 61.1024 61.035 73.6471 45.5768 73.6471C30.1171 73.6471 17.5864 61.1026 17.5864 45.627C17.5864 30.152 30.1171 17.6075 45.5768 17.6075C61.035 17.6077 73.5639 30.152 73.5639 45.627Z" fill="white"/>
<path id="Shape_2" d="M74.8132 45.6272C74.8132 46.6038 74.0227 47.3952 73.0472 47.3952H48.6505L60.8375 68.3107C61.3289 69.1541 61.0447 70.2367 60.202 70.7286C59.9222 70.8921 59.616 70.9699 59.3136 70.9699C58.7061 70.9699 58.1149 70.6557 57.7867 70.0925L45.5756 49.1362L33.3655 70.0925C33.0374 70.6559 32.446 70.9701 31.8385 70.9701C31.5362 70.9701 31.2301 70.8922 30.9503 70.7288C30.108 70.2369 29.8232 69.1542 30.3148 68.3109L42.501 47.3952H18.1039C17.1286 47.3952 16.3379 46.6038 16.3379 45.6272C16.3379 44.6506 17.1286 43.8592 18.1039 43.8592H42.5006L30.3134 22.944C29.822 22.1005 30.1064 21.0177 30.9489 20.5258C31.7916 20.0339 32.873 20.3186 33.3644 21.1621L45.5753 42.1184L57.7854 21.1621C58.2768 20.3187 59.3582 20.0337 60.2009 20.5258C61.0433 21.0177 61.328 22.1003 60.8365 22.9437L48.6499 43.8592H73.0472C74.0227 43.8594 74.8132 44.6508 74.8132 45.6272Z" fill="#646561"/>
<path id="Shape_3" d="M45.5756 37.2524C50.1961 37.2524 53.9409 41.0018 53.9409 45.6272C53.9409 50.2528 50.1961 54.0022 45.5756 54.0022C40.9548 54.0022 37.2095 50.2528 37.2095 45.6272C37.2095 41.0018 40.9546 37.2524 45.5756 37.2524Z" fill="#767672"/>
<g id="Clipped">
<mask id="mask0" mask-type="alpha" maskUnits="userSpaceOnUse" x="0" y="0" width="91" height="91">
<path id="group_6-a" fill-rule="evenodd" clip-rule="evenodd" d="M0.453125 90.8114V0.442986H90.708V90.8114H0.453125Z" fill="white"/>
</mask>
<g mask="url(#mask0)">
<path id="Shape_4" d="M45.5753 41.1813C48.0282 41.1813 50.0161 43.1717 50.0161 45.6272C50.0161 48.0829 48.0282 50.0733 45.5753 50.0733C43.1223 50.0733 41.1338 48.0829 41.1338 45.6272C41.1341 43.1717 43.1223 41.1813 45.5753 41.1813Z" fill="#646561"/>
</g>
</g>
<g id="Clipped_2">
<mask id="mask1" mask-type="alpha" maskUnits="userSpaceOnUse" x="0" y="0" width="91" height="91">
<path id="group_6-a_2" fill-rule="evenodd" clip-rule="evenodd" d="M0.453125 90.8114V0.442986H90.708V90.8114H0.453125Z" fill="white"/>
</mask>
<g mask="url(#mask1)">
<path id="Shape_5" fill-rule="evenodd" clip-rule="evenodd" d="M0.442383 45.6272C0.442383 20.6723 20.6483 0.442986 45.5757 0.442986C70.502 0.442986 90.7079 20.6723 90.7079 45.6272C90.7079 70.5821 70.502 90.8114 45.5757 90.8114C20.6483 90.8114 0.442383 70.5821 0.442383 45.6272ZM20.1629 45.6272C20.1629 59.6779 31.5408 71.068 45.5757 71.068C59.6095 71.068 70.9873 59.6779 70.9877 45.6272C70.9877 31.5763 59.6096 20.1864 45.5757 20.1864C31.5408 20.1864 20.1629 31.5765 20.1629 45.6272Z" fill="#343532"/>
</g>
</g>
<g id="Clipped_3">
<mask id="mask2" mask-type="alpha" maskUnits="userSpaceOnUse" x="0" y="0" width="91" height="91">
<path id="group_6-a_3" fill-rule="evenodd" clip-rule="evenodd" d="M0.453125 90.8114V0.442986H90.708V90.8114H0.453125Z" fill="white"/>
</mask>
<g mask="url(#mask2)">
<path id="Shape_6" fill-rule="evenodd" clip-rule="evenodd" d="M0.442383 45.6272C0.442383 20.6723 20.6483 0.442986 45.5757 0.442986C70.502 0.442986 90.7079 20.6723 90.7079 45.6272C90.7079 70.5821 70.502 90.8114 45.5757 90.8114C20.6483 90.8114 0.442383 70.5821 0.442383 45.6272ZM9.73744 45.627C9.73744 65.4424 25.7821 81.505 45.5772 81.505C65.3704 81.505 81.4128 65.4424 81.4128 45.627C81.4128 25.812 65.3704 9.7497 45.5772 9.7497C25.7821 9.7497 9.73744 25.8122 9.73744 45.627Z" fill="#52524F"/>
</g>
</g>
<path id="Shape_7" fill-rule="evenodd" clip-rule="evenodd" d="M80.6384 39.9598C80.7594 39.9598 80.8817 39.9474 81.0046 39.9215C81.9591 39.7199 82.5696 38.7821 82.3685 37.8266C79.3014 23.2598 67.9177 11.8633 53.3673 8.79271C52.4134 8.59132 51.4762 9.20237 51.2748 10.1579C51.0738 11.1135 51.6842 12.0514 52.6387 12.2528C65.8206 15.0345 76.1336 25.3591 78.9123 38.556C79.0875 39.3884 79.8211 39.9598 80.6384 39.9598ZM12.2387 52.6987C15.0174 65.8953 25.3304 76.2201 38.5116 79.0017C39.4661 79.2031 40.0766 80.1411 39.8756 81.0966C39.7 81.929 38.9665 82.5003 38.1491 82.5003C38.0284 82.5003 37.906 82.4878 37.7831 82.4619C23.2333 79.3909 11.85 67.9946 8.78253 53.428C8.5812 52.4726 9.19172 51.5347 10.1462 51.3333C11.0996 51.1312 12.0374 51.7431 12.2387 52.6987Z" fill="#F63E31"/>
<path id="Oval" d="M45.5751 90.8114C70.5013 90.8114 90.7079 70.5817 90.7079 45.6272C90.7079 20.6726 70.5013 0.442986 45.5751 0.442986C20.649 0.442986 0.442383 20.6726 0.442383 45.6272C0.442383 70.5817 20.649 90.8114 45.5751 90.8114Z" fill="black" fill-opacity="0.04"/>
<g id="Group">
<g id="Shape_8">
<path fill-rule="evenodd" clip-rule="evenodd" d="M74.8942 73.9781H76.9915L90.2393 87.2676L86.2835 91.2278L73.0092 77.9649V75.8652L72.2924 75.121C69.2658 77.7257 65.3366 79.2939 61.0623 79.2939C51.5313 79.2939 43.8057 71.5594 43.8057 62.0175C43.8057 52.4757 51.5313 44.7412 61.0623 44.7412C70.5933 44.7412 78.3189 52.4757 78.3189 62.0175C78.3189 66.2968 76.7526 70.2304 74.1508 73.2604L74.8942 73.9781ZM49.1154 62.0175C49.1154 68.6357 54.4517 73.9781 61.0623 73.9781C67.6729 73.9781 73.0092 68.6357 73.0092 62.0175C73.0092 55.3994 67.6729 50.057 61.0623 50.057C54.4517 50.057 49.1154 55.3994 49.1154 62.0175Z" fill="white"/>
<path d="M76.9915 73.9781L77.6182 73.3533L77.3589 73.0931H76.9915V73.9781ZM74.8942 73.9781L74.2795 74.6148L74.5367 74.863H74.8942V73.9781ZM90.2393 87.2676L90.8654 87.893L91.4895 87.2682L90.866 86.6428L90.2393 87.2676ZM86.2835 91.2278L85.6581 91.8538L86.2842 92.4794L86.9097 91.8532L86.2835 91.2278ZM73.0092 77.9649H72.1242V78.3317L72.3837 78.5909L73.0092 77.9649ZM73.0092 75.8652H73.8942V75.5083L73.6466 75.2513L73.0092 75.8652ZM72.2924 75.121L72.9298 74.5071L72.3493 73.9044L71.7151 74.4502L72.2924 75.121ZM74.1508 73.2604L73.4794 72.6839L72.9355 73.3173L73.5362 73.8971L74.1508 73.2604ZM76.9915 73.0931H74.8942V74.863H76.9915V73.0931ZM90.866 86.6428L77.6182 73.3533L76.3648 74.6028L89.6126 87.8923L90.866 86.6428ZM86.9097 91.8532L90.8654 87.893L89.6132 86.6422L85.6574 90.6024L86.9097 91.8532ZM72.3837 78.5909L85.6581 91.8538L86.909 90.6018L73.6347 77.3389L72.3837 78.5909ZM72.1242 75.8652V77.9649H73.8942V75.8652H72.1242ZM71.655 75.7349L72.3718 76.4791L73.6466 75.2513L72.9298 74.5071L71.655 75.7349ZM61.0623 80.1788C65.5569 80.1788 69.689 78.5291 72.8697 75.7917L71.7151 74.4502C68.8427 76.9223 65.1164 78.4089 61.0623 78.4089V80.1788ZM42.9207 62.0175C42.9207 72.0472 51.0416 80.1788 61.0623 80.1788V78.4089C52.021 78.4089 44.6906 71.0716 44.6906 62.0175H42.9207ZM61.0623 43.8563C51.0416 43.8563 42.9207 51.9879 42.9207 62.0175H44.6906C44.6906 52.9635 52.021 45.6262 61.0623 45.6262V43.8563ZM79.2039 62.0175C79.2039 51.9879 71.083 43.8563 61.0623 43.8563V45.6262C70.1036 45.6262 77.434 52.9635 77.434 62.0175H79.2039ZM74.8222 73.837C77.5564 70.6528 79.2039 66.5164 79.2039 62.0175H77.434C77.434 66.0771 75.9488 69.8081 73.4794 72.6839L74.8222 73.837ZM75.5088 73.3414L74.7654 72.6238L73.5362 73.8971L74.2795 74.6148L75.5088 73.3414ZM61.0623 73.0931C54.9414 73.0931 50.0004 68.1479 50.0004 62.0175H48.2304C48.2304 69.1235 53.962 74.863 61.0623 74.863V73.0931ZM72.1242 62.0175C72.1242 68.1479 67.1832 73.0931 61.0623 73.0931V74.863C68.1626 74.863 73.8942 69.1235 73.8942 62.0175H72.1242ZM61.0623 50.942C67.1832 50.942 72.1242 55.8872 72.1242 62.0175H73.8942C73.8942 54.9116 68.1626 49.1721 61.0623 49.1721V50.942ZM50.0004 62.0175C50.0004 55.8872 54.9414 50.942 61.0623 50.942V49.1721C53.962 49.1721 48.2304 54.9116 48.2304 62.0175H50.0004Z" fill="#494946"/>
</g>
</g>
</g>
</svg>
