<svg width="100" height="100" viewBox="0 0 100 100" fill="none" xmlns="http://www.w3.org/2000/svg">
<g id="ribbon">
<g id="Group">
<path id="Shape" d="M79.8262 46.2367C78.9693 44.7377 77.7057 43.6694 76.2114 44.5288C76.1595 44.5587 76.1085 44.59 76.0584 44.6229L49.9032 61.7734C48.5182 62.6807 48.0802 64.5148 48.9051 65.9531L66.9948 97.3635C67.5519 98.3314 68.5816 98.9277 69.6958 98.9277C69.8309 98.9371 69.9662 98.9371 70.1012 98.9277C71.3539 98.7627 72.3833 97.8558 72.7086 96.6314L77.5866 78.2607L95.8946 83.1975C97.5574 83.6488 99.2701 82.6627 99.72 80.9949C99.9363 80.1928 99.8258 79.3375 99.4127 78.6174L79.8262 46.2367Z" fill="#F63E31"/>
<path id="Shape_2" d="M49.9034 61.7734L23.7046 44.6229C22.2603 43.6812 21.7738 44.2379 20.835 45.6866C20.8041 45.7345 19.8486 45.6373 19.8202 45.6866L0.418827 78.5923C-0.439068 80.0905 0.0761366 82.0028 1.5699 82.8634C2.2851 83.2755 3.13403 83.3866 3.93072 83.1725L22.2449 78.2357L27.1167 96.6064C27.5615 98.2756 29.2711 99.2672 30.9352 98.821C31.7348 98.6067 32.4167 98.0822 32.8305 97.3635L50.9202 65.9531C51.7416 64.5101 51.295 62.6746 49.9034 61.7734Z" fill="#F63E31"/>
</g>
<path id="Oval" d="M49.9998 68.2243C68.8395 68.2243 84.112 52.9518 84.112 34.1121C84.112 15.2725 68.8395 0 49.9998 0C31.1602 0 15.8877 15.2725 15.8877 34.1121C15.8877 52.9518 31.1602 68.2243 49.9998 68.2243Z" fill="#FFC107"/>
<path id="Shape_3" d="M68.0467 26.1065C67.7145 25.1042 66.8996 24.3382 65.8809 24.0711L57.0496 21.7548L52.2076 13.5757C51.2087 12.0931 49.2008 11.7034 47.7227 12.7055C47.3808 12.9373 47.0864 13.2327 46.8553 13.5757L42.0134 21.7548L33.1883 24.0711C31.5225 24.4953 30.5149 26.1937 30.9377 27.8649C31.0489 28.3042 31.2541 28.7142 31.5391 29.066L37.4577 36.4958L36.8353 46.2045C36.7218 47.9248 38.0198 49.4119 39.7346 49.5259C40.2223 49.5583 40.7109 49.475 41.1607 49.2826L49.5315 45.6801L57.9333 49.2576C58.3262 49.4276 58.7504 49.5126 59.178 49.5074C60.8967 49.5111 62.2929 48.1164 62.2966 46.3924C62.2968 46.3214 62.2945 46.2504 62.2898 46.1795L61.6675 36.4708L67.5861 29.041C68.2235 28.2036 68.3965 27.1 68.0467 26.1065Z" fill="#FAFAFA"/>
<path id="Shape_4" fill-rule="evenodd" clip-rule="evenodd" d="M15.8877 34.1121C15.8877 52.9517 31.1602 68.2243 49.9998 68.2243C68.8309 68.2038 84.0914 52.9432 84.112 34.1121C84.112 15.2726 68.8394 0 49.9998 0C31.1602 0 15.8877 15.2726 15.8877 34.1121ZM22.0899 34.1121C22.0899 18.6979 34.5856 6.20221 49.9998 6.20221C65.4069 6.21926 77.8927 18.7051 77.9098 34.1121C77.9098 49.5264 65.4141 62.0221 49.9998 62.0221C34.5856 62.0221 22.0899 49.5264 22.0899 34.1121Z" fill="#313230"/>
<path id="Shape_5" d="M69.8391 99.0654C68.7237 99.0654 67.693 98.4758 67.1354 97.519L49.0273 66.4664C48.1552 64.9929 48.9268 64.2374 50.4143 63.3735C51.9018 62.5097 53.5418 61.8642 54.4138 63.3378C54.4209 63.3496 68.7776 87.931 68.7776 87.931L72.5241 74.0069C72.7438 73.2228 73.2666 72.5561 73.979 72.1511C74.6971 71.74 75.5508 71.6286 76.3518 71.8419L90.4261 75.5966L75.2528 49.5174C74.3808 48.0439 74.8797 46.1489 76.3674 45.285C77.8549 44.4211 79.7677 44.9154 80.6398 46.3892C80.6468 46.401 99.5803 78.9555 99.5803 78.9555C100.443 80.4343 99.9325 82.3262 98.4398 83.181C97.7211 83.5925 96.8664 83.7037 96.0648 83.4897L77.7319 78.6029L72.8552 96.7581C72.495 98.1163 71.2565 99.0637 69.8391 99.0654Z" fill="#313230"/>
<path id="Shape_6" d="M30.1617 99.0588C30.0245 99.0676 29.8867 99.0676 29.7496 99.0588C28.4964 98.8923 27.4682 97.9935 27.1456 96.7824L22.2687 78.6274L3.93486 83.5141C2.26993 83.9587 0.556402 82.9819 0.10758 81.3327C-0.10844 80.5386 0.00357035 79.6919 0.419219 78.98L19.3587 46.4246C20.2109 44.9396 22.117 44.4202 23.6161 45.2646C25.1152 46.1087 25.6395 47.9969 24.7871 49.4819C24.7803 49.4939 9.59237 75.5531 9.59237 75.5531L23.6674 71.8417C24.4687 71.6319 25.321 71.7429 26.0403 72.1509C26.7528 72.5559 27.2756 73.2226 27.4953 74.0067L31.2233 87.9245L45.5856 63.3672C46.4576 61.8937 48.0698 62.5036 49.5575 63.3672C51.0312 64.223 51.8377 64.9891 50.9933 66.4601L32.8843 97.5123C32.3233 98.475 31.2837 99.0653 30.1617 99.0588Z" fill="#313230"/>
<path id="Shape_7" fill-rule="evenodd" clip-rule="evenodd" d="M57.929 49.2818C58.3225 49.45 58.7461 49.535 59.1738 49.5315C59.8097 49.5265 60.4288 49.3259 60.9477 48.9571C61.8312 48.3299 62.326 47.2872 62.2548 46.2038L61.6324 36.4953L67.5267 29.0656C67.8116 28.7138 68.0168 28.3039 68.1281 27.8645C68.5509 26.1934 67.5432 24.495 65.8773 24.0709L57.0514 21.7546L52.209 13.5757C51.9779 13.2327 51.6834 12.9373 51.3415 12.7055C49.8632 11.7034 47.8552 12.0931 46.8562 13.5757L42.0138 21.7546L33.1879 24.0709C32.7499 24.1823 32.3412 24.3883 31.9905 24.6741C30.6568 25.7617 30.4545 27.7277 31.5385 29.0656L37.4577 36.4953L36.8353 46.2038C36.803 46.6931 36.886 47.1834 37.0778 47.6345C37.7518 49.2203 39.5799 49.958 41.1611 49.2818L49.5575 45.7043L57.929 49.2818ZM50.8023 39.4359C50.4088 39.2677 49.9852 39.1827 49.5575 39.1862C49.1461 39.1915 48.74 39.2785 48.3624 39.4422L43.3831 41.5587L43.769 35.7086C43.8205 34.9317 43.5809 34.1634 43.0968 33.5546L39.4183 28.9282L44.8707 27.4923C45.6543 27.2802 46.3244 26.7694 46.7379 26.0688L49.5575 21.305L52.3957 26.0688C52.8092 26.7694 53.4793 27.2802 54.263 27.4923L59.6967 28.9282L56.0182 33.5484C55.534 34.1571 55.2944 34.9254 55.346 35.7024L55.7817 41.5524L50.8023 39.4359Z" fill="#313230"/>
</g>
</svg>
