<svg width="100" height="100" viewBox="0 0 100 100" fill="none" xmlns="http://www.w3.org/2000/svg">
<g id="wrench">
<path id="Oval" d="M50 100C77.6142 100 100 77.6142 100 50C100 22.3858 77.6142 0 50 0C22.3858 0 0 22.3858 0 50C0 77.6142 22.3858 100 50 100Z" fill="#FFC107"/>
<path id="Shape" d="M56.8158 28.5984L53.8889 25.6715L52.3373 26.4369L48.4049 22.5033L44.4158 21.4328L42.6344 24.0924C42.1818 24.0549 41.7113 24.0365 41.2488 24.0471C41.0633 24.0432 40.8783 24.0486 40.6934 24.0545L38.0723 21.433L34.0828 22.5035L33.8709 25.6984C33.0395 26.0875 32.2359 26.549 31.4609 27.0844L28.5898 25.6713L25.6713 28.5982L27.0838 31.4602C26.5482 32.2352 26.0863 33.0397 25.6893 33.8797L22.5037 34.0916L21.4326 38.0721L24.0586 40.6977C24.0516 40.8807 24.0361 41.0652 24.0361 41.2477C24.0361 41.7092 24.0547 42.1902 24.1012 42.6516L21.4326 44.415L22.4945 48.4041L26.434 52.3436L25.6715 53.8891L28.59 56.8156L68.3057 96.5272C81.1902 91.4541 91.4531 81.1916 96.5268 68.3076L56.8158 28.5984Z" fill="#EFB300"/>
<path id="Shape_2" fill-rule="evenodd" clip-rule="evenodd" d="M53.8943 25.6705L56.8178 28.5904L55.4029 31.4598C55.9389 32.2357 56.4 33.0398 56.7895 33.8678L59.9869 34.0838L61.0545 38.0697L58.4 39.8486C58.4275 40.3082 58.4551 40.7816 58.448 41.2396C58.4551 41.7131 58.4275 42.1836 58.392 42.6506L58.399 42.6355L61.0551 44.4141L59.9875 48.4006L56.7926 48.6125C56.4006 49.443 55.9346 50.249 55.4035 51.0225L56.8176 53.8949L53.8941 56.8139L51.0252 55.4023C50.2502 55.935 49.4488 56.3984 48.6178 56.8004L48.4053 59.9885L44.4162 61.0555L42.6508 58.3939C42.1857 58.4279 41.7152 58.4498 41.2463 58.4459C40.7812 58.4514 40.3123 58.4277 39.8498 58.3988L38.0723 61.0553L34.0857 59.9853L33.8697 56.7949C33.0441 56.3975 32.2396 55.9426 31.4611 55.4045L28.5922 56.8141L25.6732 53.8951L27.0832 51.0252C26.5451 50.2496 26.0926 49.4436 25.6906 48.6156L22.4992 48.3996L21.4328 44.4146L24.0883 42.6361L24.0992 42.6512C24.0596 42.1842 24.0361 41.7107 24.0396 41.2402C24.0361 40.7793 24.0602 40.3088 24.0881 39.8492L21.4326 38.0703L22.5021 34.0844L25.6922 33.8754C26.0893 33.0408 26.5502 32.2369 27.0832 31.4603L25.6732 28.5908L28.5922 25.6719L31.4637 27.0814C32.2412 26.5469 33.0418 26.0844 33.8723 25.6959L34.0857 22.4984L38.0723 21.4334L39.8527 24.0889L39.8363 24.0959C40.3037 24.0584 40.7773 24.0346 41.2463 24.0385C41.7152 24.0344 42.1844 24.0564 42.6533 24.0975L42.6383 24.0889L44.4188 21.4334L48.4023 22.4984L48.6148 25.692C49.4479 26.0875 50.2504 26.5471 51.0254 27.0785L53.8943 25.6705ZM32.2117 50.2744C37.2006 55.2645 45.2896 55.2645 50.2771 50.2744C55.2646 45.2881 55.2646 37.1984 50.2771 32.209C45.2912 27.2234 37.2006 27.2234 32.2146 32.209C27.2242 37.1984 27.2242 45.2879 32.2117 50.2744Z" fill="#354052"/>
<path id="Shape_3" d="M64.4312 70.4119L70.4133 64.427L51.0479 45.0645L45.0674 51.0494L64.4312 70.4119Z" fill="#CEE2F2"/>
<g id="Group">
<path id="Shape_4" d="M38.0551 31.157L45.4596 38.5586L44.0016 44L38.5616 45.458L31.1565 38.0555C30.0104 41.6945 30.876 45.8375 33.762 48.7225C37.895 52.8555 44.5944 52.8555 48.7274 48.7225C52.8534 44.5914 52.8534 37.892 48.7274 33.7615C45.8356 30.877 41.701 30.009 38.0551 31.157Z" fill="#F2F9FF"/>
<path id="Shape_5" fill-rule="evenodd" clip-rule="evenodd" d="M65.9875 76.4561C63.1401 73.608 63.1725 68.957 66.0686 66.067C68.961 63.176 73.61 63.1381 76.4532 65.983C79.301 68.8295 79.2666 73.4795 76.3766 76.373C73.4825 79.266 68.8301 79.3016 65.9875 76.4561ZM75.4766 71.2186L76.2625 69.1301L74.2311 68.2111L73.308 66.1801L71.2231 66.9631L69.135 66.1801L68.2106 68.2111L66.1801 69.1301L66.9661 71.2186L66.1801 73.307L68.2106 74.2295L69.135 76.258L71.2231 75.475L73.308 76.2605L74.2311 74.2295L76.2625 73.307L75.4766 71.2186Z" fill="#F2F9FF"/>
</g>
</g>
</svg>
