<svg width="163" height="20" viewBox="0 0 163 20" fill="none" xmlns="http://www.w3.org/2000/svg">
<path d="M10.1816 13.998C10.3678 13.0417 9.85156 12.3011 8.63281 11.7764L6.55078 10.9131C3.63086 9.60124 2.24284 7.81543 2.38672 5.55566C2.44596 4.52311 2.80143 3.60482 3.45312 2.80078C4.10482 1.98828 5.00618 1.35775 6.15723 0.90918C7.30827 0.460612 8.5651 0.244792 9.92773 0.261719C11.7559 0.295573 13.2243 0.828776 14.333 1.86133C15.4502 2.89388 16.0003 4.27767 15.9834 6.0127H11.667C11.6924 5.30176 11.54 4.7347 11.21 4.31152C10.8883 3.87988 10.3551 3.6556 9.61035 3.63867C8.88249 3.62174 8.23926 3.79102 7.68066 4.14648C7.12207 4.50195 6.79199 4.98014 6.69043 5.58105C6.52962 6.42741 7.15592 7.12142 8.56934 7.66309C9.99121 8.20475 11.0238 8.67025 11.667 9.05957C13.6898 10.2699 14.6377 11.9033 14.5107 13.96C14.443 15.0264 14.1003 15.9616 13.4824 16.7656C12.8646 17.5697 12.0055 18.1917 10.9053 18.6318C9.81348 19.0719 8.58626 19.2835 7.22363 19.2666C6.22493 19.2497 5.29818 19.0931 4.44336 18.7969C3.58854 18.5007 2.85645 18.069 2.24707 17.502C1.01139 16.3594 0.418945 14.8571 0.469727 12.9951L4.82422 13.0078C4.77344 13.9557 4.9554 14.6751 5.37012 15.166C5.78483 15.6484 6.48307 15.8896 7.46484 15.8896C8.19271 15.8896 8.79785 15.7246 9.28027 15.3945C9.77116 15.056 10.0716 14.5905 10.1816 13.998ZM30.9512 19H26.6348L27.9678 11.2812H21.6328L20.2871 19H15.9453L19.1445 0.515625H23.499L22.2168 7.85352H28.5645L29.834 0.515625H34.1631L30.9512 19ZM38.4287 19H34.0869L37.2988 0.515625H41.6279L38.4287 19ZM56.5322 19H52.3301L47.9121 7.33301L45.8809 19H41.5391L44.7383 0.515625H48.9785L53.3838 12.1826L55.4023 0.515625H59.7441L56.5322 19ZM121.139 17.0703C121.122 16.4271 121.342 15.8939 121.799 15.4707C122.256 15.0475 122.802 14.8359 123.437 14.8359C124.063 14.8359 124.596 15.0306 125.036 15.4199C125.476 15.8008 125.705 16.3001 125.722 16.918C125.739 17.5527 125.523 18.0859 125.074 18.5176C124.626 18.9408 124.076 19.1523 123.424 19.1523C122.781 19.1523 122.243 18.9577 121.812 18.5684C121.38 18.179 121.156 17.6797 121.139 17.0703ZM136.322 12.4746H133.91L132.768 19H128.426L131.625 0.515625L138.15 0.52832C140.241 0.52832 141.849 1.01921 142.975 2.00098C144.109 2.97428 144.617 4.30729 144.498 6C144.405 7.33724 144.02 8.44596 143.343 9.32617C142.666 10.1979 141.718 10.8877 140.499 11.3955L142.987 18.7842V19H138.354L136.322 12.4746ZM134.494 9.03418L137.033 9.05957C137.727 9.05957 138.328 8.8903 138.836 8.55176C139.352 8.21322 139.72 7.75195 139.94 7.16797C140.16 6.57552 140.224 6.00423 140.131 5.4541C139.962 4.51465 139.361 4.01953 138.328 3.96875L135.383 3.95605L134.494 9.03418ZM162.348 0.515625L160.291 12.5762C159.995 14.6667 159.132 16.3128 157.701 17.5146C156.279 18.7165 154.485 19.3005 152.318 19.2666C150.973 19.2412 149.805 18.9535 148.814 18.4033C147.824 17.8447 147.092 17.0618 146.618 16.0547C146.153 15.0391 145.996 13.8838 146.148 12.5889L148.205 0.515625H152.572L150.528 12.6016C150.478 13.0247 150.469 13.4268 150.503 13.8076C150.545 14.4339 150.74 14.9206 151.087 15.2676C151.442 15.6146 151.942 15.8008 152.585 15.8262C154.447 15.8854 155.568 14.8063 155.949 12.5889L158.006 0.515625H162.348Z" fill="black" fill-opacity="0.87"/>
<path d="M69.5449 13.998C69.7311 13.0417 69.2148 12.3011 67.9961 11.7764L65.9141 10.9131C62.9941 9.60124 61.6061 7.81543 61.75 5.55566C61.8092 4.52311 62.1647 3.60482 62.8164 2.80078C63.4681 1.98828 64.3695 1.35775 65.5205 0.90918C66.6715 0.460612 67.9284 0.244792 69.291 0.261719C71.1191 0.295573 72.5876 0.828776 73.6963 1.86133C74.8135 2.89388 75.3636 4.27767 75.3467 6.0127H71.0303C71.0557 5.30176 70.9033 4.7347 70.5732 4.31152C70.2516 3.87988 69.7184 3.6556 68.9736 3.63867C68.2458 3.62174 67.6025 3.79102 67.0439 4.14648C66.4854 4.50195 66.1553 4.98014 66.0537 5.58105C65.8929 6.42741 66.5192 7.12142 67.9326 7.66309C69.3545 8.20475 70.387 8.67025 71.0303 9.05957C73.0531 10.2699 74.001 11.9033 73.874 13.96C73.8063 15.0264 73.4635 15.9616 72.8457 16.7656C72.2279 17.5697 71.3688 18.1917 70.2686 18.6318C69.1768 19.0719 67.9495 19.2835 66.5869 19.2666C65.5882 19.2497 64.6615 19.0931 63.8066 18.7969C62.9518 18.5007 62.2197 18.069 61.6104 17.502C60.3747 16.3594 59.7822 14.8571 59.833 12.9951L64.1875 13.0078C64.1367 13.9557 64.3187 14.6751 64.7334 15.166C65.1481 15.6484 65.8464 15.8896 66.8281 15.8896C67.556 15.8896 68.1611 15.7246 68.6436 15.3945C69.1344 15.056 69.4349 14.5905 69.5449 13.998ZM86.1631 15.5469H80.2598L78.6221 19H73.8359L83.624 0.515625H87.7119L91.127 19H86.6074L86.1631 15.5469ZM81.8848 12.1064H85.7188L84.9062 5.7334L81.8848 12.1064ZM97.5635 15.5723H105.092L104.495 19H92.625L95.8242 0.515625H100.179L97.5635 15.5723ZM118.942 11.167H112.15L111.376 15.5723H119.412L118.815 19H106.438L109.637 0.515625H122.04L121.443 3.95605H113.395L112.709 7.85352H119.514L118.942 11.167Z" fill="#F44336"/>
</svg>
